_Griffith_Gothic-Ultra_WebTT.ufo
<glyph name="quotedbl" format="1">
  <advance width="1044.48"/>
  <unicode hex="0022"/>
  <outline>
    <contour>
      <point x="55" y="1475" type="line"/>
      <point x="483" y="1475" type="line"/>
      <point x="377" y="817" type="line"/>
      <point x="162" y="817" type="line"/>
    </contour>
    <contour>
      <point x="561" y="1475" type="line"/>
      <point x="989" y="1475" type="line"/>
      <point x="883" y="817" type="line"/>
      <point x="668" y="817" type="line"/>
    </contour>
  </outline>
</glyph>
<glyph name="numbersign" format="1">
  <advance width="1372.16"/>
  <unicode hex="0023"/>
  <outline>
    <contour>
      <point x="1315" y="1214" type="line"/>
      <point x="1315" y="879" type="line"/>
      <point x="1055" y="879" type="line"/>
      <point x="1008" y="596" type="line"/>
      <point x="1245" y="596" type="line"/>
      <point x="1245" y="260" type="line"/>
      <point x="950" y="260" type="line"/>
      <point x="907" y="0" type="line"/>
      <point x="723" y="0" type="line"/>
      <point x="766" y="260" type="line"/>
      <point x="444" y="260" type="line"/>
      <point x="401" y="0" type="line"/>
      <point x="217" y="0" type="line"/>
      <point x="260" y="260" type="line"/>
      <point x="57" y="260" type="line"/>
      <point x="57" y="596" type="line"/>
      <point x="317" y="596" type="line"/>
      <point x="365" y="879" type="line"/>
      <point x="127" y="879" type="line"/>
      <point x="127" y="1214" type="line"/>
      <point x="422" y="1214" type="line"/>
      <point x="465" y="1475" type="line"/>
      <point x="649" y="1475" type="line"/>
      <point x="606" y="1214" type="line"/>
      <point x="928" y="1214" type="line"/>
      <point x="971" y="1475" type="line"/>
      <point x="1155" y="1475" type="line"/>
      <point x="1112" y="1214" type="line"/>
    </contour>
    <contour>
      <point x="827" y="584" type="line"/>
      <point x="879" y="891" type="line"/>
      <point x="545" y="891" type="line"/>
      <point x="494" y="584" type="line"/>
    </contour>
  </outline>
</glyph>
<glyph name="percent" format="1">
  <advance width="2027.52"/>
  <unicode hex="0025"/>
  <outline>
    <contour>
      <point x="463" y="1489" type="qcurve" smooth="yes"/>
      <point x="649.567164179" y="1489.0"/>
      <point x="879.0" y="1257.13432836"/>
      <point x="879" y="1034" type="qcurve" smooth="yes"/>
      <point x="879.0" y="815.343283582"/>
      <point x="645.567164179" y="580.0"/>
      <point x="459" y="580" type="qcurve" smooth="yes"/>
      <point x="272.432835821" y="580.0"/>
      <point x="43.0" y="810.865671642"/>
      <point x="43" y="1034" type="qcurve" smooth="yes"/>
      <point x="43.0" y="1252.65671642"/>
      <point x="276.432835821" y="1489.0"/>
    </contour>
    <contour>
      <point x="461" y="813" type="qcurve" smooth="yes"/>
      <point x="522.194029851" y="813.0"/>
      <point x="580.0" y="922.298507463"/>
      <point x="580" y="1032" type="qcurve" smooth="yes"/>
      <point x="580.0" y="1142.44776119"/>
      <point x="522.194029851" y="1255.0"/>
      <point x="461" y="1255" type="qcurve" smooth="yes"/>
      <point x="399.805970149" y="1255.0"/>
      <point x="342.0" y="1146.44776119"/>
      <point x="342" y="1036" type="qcurve" smooth="yes"/>
      <point x="342.0" y="926.298507463"/>
      <point x="399.805970149" y="813.0"/>
    </contour>
    <contour>
      <point x="1569" y="895" type="qcurve" smooth="yes"/>
      <point x="1755.56716418" y="895.0"/>
      <point x="1985.0" y="663.134328358"/>
      <point x="1985" y="440" type="qcurve" smooth="yes"/>
      <point x="1985.0" y="221.343283582"/>
      <point x="1751.56716418" y="-14.0"/>
      <point x="1565" y="-14" type="qcurve" smooth="yes"/>
      <point x="1378.43283582" y="-14.0"/>
      <point x="1149.0" y="216.865671642"/>
      <point x="1149" y="440" type="qcurve" smooth="yes"/>
      <point x="1149.0" y="658.656716418"/>
      <point x="1382.43283582" y="895.0"/>
    </contour>
    <contour>
      <point x="1567" y="219" type="qcurve" smooth="yes"/>
      <point x="1628.19402985" y="219.0"/>
      <point x="1686.0" y="328.298507463"/>
      <point x="1686" y="438" type="qcurve" smooth="yes"/>
      <point x="1686.0" y="548.447761194"/>
      <point x="1628.19402985" y="662.0"/>
      <point x="1567" y="662" type="qcurve" smooth="yes"/>
      <point x="1505.80597015" y="662.0"/>
      <point x="1448.0" y="552.447761194"/>
      <point x="1448" y="442" type="qcurve" smooth="yes"/>
      <point x="1448.0" y="332.298507463"/>
      <point x="1505.80597015" y="219.0"/>
    </contour>
    <contour>
      <point x="1296" y="1475" type="line"/>
      <point x="1649" y="1475" type="line"/>
      <point x="1094" y="702" type="line"/>
      <point x="731" y="0" type="line"/>
      <point x="379" y="0" type="line"/>
      <point x="934" y="772" type="line"/>
    </contour>
  </outline>
</glyph>
<glyph name="asterisk" format="1">
  <advance width="901.12"/>
  <unicode hex="002A"/>
  <outline>
    <contour>
      <point x="762" y="1384" type="line"/>
      <point x="868" y="1059" type="line"/>
      <point x="565" y="1067" type="line"/>
      <point x="825" y="895" type="line"/>
      <point x="545" y="690" type="line"/>
      <point x="451" y="997" type="line"/>
      <point x="358" y="690" type="line"/>
      <point x="78" y="895" type="line"/>
      <point x="338" y="1067" type="line"/>
      <point x="33" y="1059" type="line"/>
      <point x="141" y="1386" type="line"/>
      <point x="385" y="1186" type="line"/>
      <point x="276" y="1475" type="line"/>
      <point x="625" y="1475" type="line"/>
      <point x="516" y="1186" type="line"/>
    </contour>
  </outline>
</glyph>
<glyph name="plus" format="1">
  <advance width="1228.8"/>
  <unicode hex="002B"/>
  <outline>
    <contour>
      <point x="1161" y="899" type="line"/>
      <point x="1161" y="555" type="line"/>
      <point x="788" y="555" type="line"/>
      <point x="788" y="180" type="line"/>
      <point x="440" y="180" type="line"/>
      <point x="440" y="555" type="line"/>
      <point x="68" y="555" type="line"/>
      <point x="68" y="899" type="line"/>
      <point x="440" y="899" type="line"/>
      <point x="440" y="1274" type="line"/>
      <point x="788" y="1274" type="line"/>
      <point x="788" y="899" type="line"/>
    </contour>
  </outline>
</glyph>
<glyph name="hyphen" format="1">
  <advance width="741.376"/>
  <unicode hex="002D"/>
  <unicode hex="2010"/>
  <unicode hex="2011"/>
  <outline>
    <contour>
      <point x="674" y="778" type="line"/>
      <point x="674" y="422" type="line"/>
      <point x="68" y="422" type="line"/>
      <point x="68" y="778" type="line"/>
    </contour>
  </outline>
</glyph>
<glyph name="zero" format="1">
  <advance width="1302.528"/>
  <unicode hex="0030"/>
  <outline>
    <contour>
      <point x="1245" y="834" type="qcurve" smooth="yes"/>
      <point x="1245" y="641" type="line" smooth="yes"/>
      <point x="1245.0" y="309.656716418"/>
      <point x="915.925373134" y="-25.0"/>
      <point x="651" y="-25" type="qcurve" smooth="yes"/>
      <point x="386.820895522" y="-25.0"/>
      <point x="57.0" y="309.656716418"/>
      <point x="57" y="641" type="qcurve" smooth="yes"/>
      <point x="57" y="834" type="line" smooth="yes"/>
      <point x="57.0" y="1165.34328358"/>
      <point x="386.820895522" y="1499.0"/>
      <point x="651" y="1499" type="qcurve" smooth="yes"/>
      <point x="915.925373134" y="1499.0"/>
      <point x="1245.0" y="1165.34328358"/>
    </contour>
    <contour>
      <point x="651" y="307" type="qcurve" smooth="yes"/>
      <point x="729.358208955" y="307.0"/>
      <point x="797.0" y="443.462686567"/>
      <point x="797" y="586" type="qcurve" smooth="yes"/>
      <point x="797" y="889" type="line" smooth="yes"/>
      <point x="797.0" y="1030.79104478"/>
      <point x="729.358208955" y="1167.0"/>
      <point x="651" y="1167" type="qcurve" smooth="yes"/>
      <point x="573.388059701" y="1167.0"/>
      <point x="506.0" y="1030.79104478"/>
      <point x="506" y="889" type="qcurve" smooth="yes"/>
      <point x="506" y="586" type="line" smooth="yes"/>
      <point x="506.0" y="443.462686567"/>
      <point x="573.388059701" y="307.0"/>
    </contour>
  </outline>
</glyph>
<glyph name="two" format="1">
  <advance width="1177.6"/>
  <unicode hex="0032"/>
  <outline>
    <contour>
      <point x="1128" y="309" type="line"/>
      <point x="1128" y="0" type="line"/>
      <point x="51" y="0" type="line"/>
      <point x="51" y="256" type="line"/>
      <point x="103.23880597" y="385.850746269"/>
      <point x="308.552238806" y="619.865671642"/>
      <point x="469" y="743" type="qcurve" smooth="yes"/>
      <point x="588.402985075" y="834.791044776"/>
      <point x="700.0" y="967.373134328"/>
      <point x="700" y="1042" type="qcurve" smooth="yes"/>
      <point x="700.0" y="1112.89552239"/>
      <point x="633.208955224" y="1184.0"/>
      <point x="575" y="1184" type="qcurve" smooth="yes"/>
      <point x="520.52238806" y="1184.0"/>
      <point x="413.671641791" y="1086.56716418"/>
      <point x="348" y="950" type="qcurve"/>
      <point x="23" y="1102" type="line"/>
      <point x="114.044776119" y="1304.98507463"/>
      <point x="371.850746269" y="1499.0"/>
      <point x="592" y="1499" type="qcurve" smooth="yes"/>
      <point x="859.164179104" y="1499.0"/>
      <point x="1110.0" y="1253.98507463"/>
      <point x="1110" y="1051" type="qcurve" smooth="yes"/>
      <point x="1110.0" y="871.895522388"/>
      <point x="940.059701493" y="657.850746269"/>
      <point x="752" y="528" type="qcurve" smooth="yes"/>
      <point x="638.567164179" y="450.388059701"/>
      <point x="520.358208955" y="356.76119403"/>
      <point x="492" y="309" type="qcurve"/>
    </contour>
  </outline>
</glyph>
<glyph name="four" format="1">
  <advance width="1320.96"/>
  <unicode hex="0034"/>
  <outline>
    <contour>
      <point x="1296" y="563" type="line"/>
      <point x="1296" y="330" type="line"/>
      <point x="1102" y="330" type="line"/>
      <point x="1102" y="0" type="line"/>
      <point x="688" y="0" type="line"/>
      <point x="688" y="330" type="line"/>
      <point x="37" y="330" type="line"/>
      <point x="37" y="614" type="line"/>
      <point x="600" y="1475" type="line"/>
      <point x="1102" y="1475" type="line"/>
      <point x="1102" y="563" type="line"/>
    </contour>
    <contour>
      <point x="307" y="563" type="line"/>
      <point x="688" y="563" type="line"/>
      <point x="688" y="1137" type="line"/>
      <point x="676" y="1137" type="line"/>
      <point x="307" y="575" type="line"/>
    </contour>
  </outline>
</glyph>
<glyph name="five" format="1">
  <advance width="1208.32"/>
  <unicode hex="0035"/>
  <outline>
    <contour>
      <point x="1159" y="547" type="qcurve" smooth="yes"/>
      <point x="1159" y="510" type="line" smooth="yes"/>
      <point x="1159.0" y="230.149253731"/>
      <point x="825.835820896" y="-20.0"/>
      <point x="543" y="-20" type="qcurve" smooth="yes"/>
      <point x="387.029850746" y="-20.0"/>
      <point x="154.059701493" y="30.8059701493"/>
      <point x="16" y="92" type="qcurve"/>
      <point x="129" y="401" type="line"/>
      <point x="248.402985075" y="351.0"/>
      <point x="429.194029851" y="307.0"/>
      <point x="518" y="307" type="qcurve" smooth="yes"/>
      <point x="615.76119403" y="307.0"/>
      <point x="721.0" y="407.253731343"/>
      <point x="721" y="508" type="qcurve" smooth="yes"/>
      <point x="721" y="520" type="line" smooth="yes"/>
      <point x="721.0" y="605.820895522"/>
      <point x="642.880597015" y="692.0"/>
      <point x="569" y="692" type="qcurve" smooth="yes"/>
      <point x="514.52238806" y="692.0"/>
      <point x="426.492537313" y="649.28358209"/>
      <point x="375" y="606" type="qcurve"/>
      <point x="100" y="606" type="line"/>
      <point x="156" y="1475" type="line"/>
      <point x="1079" y="1475" type="line"/>
      <point x="1079" y="1135" type="line"/>
      <point x="422" y="1135" type="line"/>
      <point x="406" y="883" type="line"/>
      <point x="418" y="883" type="line"/>
      <point x="477.701492537" y="934.492537313"/>
      <point x="616.313432836" y="993.0"/>
      <point x="729" y="993" type="qcurve" smooth="yes"/>
      <point x="923.029850746" y="993.0"/>
      <point x="1159.0" y="768.641791045"/>
    </contour>
  </outline>
</glyph>
<glyph name="seven" format="1">
  <advance width="1179.648"/>
  <unicode hex="0037"/>
  <outline>
    <contour>
      <point x="1149" y="1475" type="line"/>
      <point x="1149" y="1235" type="line"/>
      <point x="974.373134328" y="996.194029851"/>
      <point x="686.895522388" y="344.029850746"/>
      <point x="616" y="0" type="qcurve"/>
      <point x="166" y="0" type="line"/>
      <point x="246.597014925" y="325.373134328"/>
      <point x="518.567164179" y="898.671641791"/>
      <point x="682" y="1133" type="qcurve"/>
      <point x="37" y="1133" type="line"/>
      <point x="37" y="1475" type="line"/>
    </contour>
  </outline>
</glyph>
<glyph name="eight" format="1">
  <advance width="1259.52"/>
  <unicode hex="0038"/>
  <outline>
    <contour>
      <point x="952" y="780" type="line"/>
      <point x="1033.34328358" y="757.611940299"/>
      <point x="1212.0" y="585.880597015"/>
      <point x="1212" y="412" type="qcurve" smooth="yes"/>
      <point x="1212.0" y="193.343283582"/>
      <point x="870.044776119" y="-25.0"/>
      <point x="629" y="-25" type="qcurve" smooth="yes"/>
      <point x="387.208955224" y="-25.0"/>
      <point x="47.0" y="191.343283582"/>
      <point x="47" y="410" type="qcurve" smooth="yes"/>
      <point x="47.0" y="582.388059701"/>
      <point x="224.910447761" y="757.611940299"/>
      <point x="307" y="780" type="qcurve"/>
      <point x="307" y="791" type="line"/>
      <point x="236.850746269" y="813.388059701"/>
      <point x="88.0" y="956.47761194"/>
      <point x="88" y="1102" type="qcurve" smooth="yes"/>
      <point x="88.0" y="1285.58208955"/>
      <point x="388.701492537" y="1499.0"/>
      <point x="629" y="1499" type="qcurve" smooth="yes"/>
      <point x="870.044776119" y="1499.0"/>
      <point x="1171.0" y="1289.58208955"/>
      <point x="1171" y="1106" type="qcurve" smooth="yes"/>
      <point x="1171.0" y="960.47761194"/>
      <point x="1020.65671642" y="814.880597015"/>
      <point x="952" y="791" type="qcurve"/>
    </contour>
    <contour>
      <point x="629" y="258" type="qcurve" smooth="yes"/>
      <point x="709.597014925" y="258.0"/>
      <point x="795.0" y="362.417910448"/>
      <point x="795" y="446" type="qcurve" smooth="yes"/>
      <point x="795.0" y="534.805970149"/>
      <point x="709.597014925" y="645.0"/>
      <point x="629" y="645" type="qcurve" smooth="yes"/>
      <point x="547.656716418" y="645.0"/>
      <point x="465.0" y="537.567164179"/>
      <point x="465" y="451" type="qcurve" smooth="yes"/>
      <point x="465.0" y="365.179104478"/>
      <point x="546.164179104" y="258.0"/>
    </contour>
    <contour>
      <point x="629" y="901" type="qcurve" smooth="yes"/>
      <point x="693.179104478" y="901.0"/>
      <point x="762.0" y="984.134328358"/>
      <point x="762" y="1061" type="qcurve" smooth="yes"/>
      <point x="762.0" y="1132.64179104"/>
      <point x="693.179104478" y="1217.0"/>
      <point x="629" y="1217" type="qcurve" smooth="yes"/>
      <point x="564.820895522" y="1217.0"/>
      <point x="498.0" y="1127.17910448"/>
      <point x="498" y="1063" type="qcurve" smooth="yes"/>
      <point x="498.0" y="995.835820896"/>
      <point x="564.820895522" y="901.0"/>
    </contour>
  </outline>
</glyph>
<glyph name="less" format="1">
  <advance width="1228.8"/>
  <unicode hex="003C"/>
  <outline>
    <contour>
      <point x="1147" y="483" type="line"/>
      <point x="1147" y="121" type="line"/>
      <point x="74" y="563" type="line"/>
      <point x="74" y="891" type="line"/>
      <point x="1147" y="1333" type="line"/>
      <point x="1147" y="971" type="line"/>
      <point x="469" y="727" type="line"/>
    </contour>
  </outline>
</glyph>
<glyph name="at" format="1">
  <advance width="1986.56"/>
  <unicode hex="0040"/>
  <outline>
    <contour>
      <point x="1034" y="1499" type="qcurve" smooth="yes"/>
      <point x="1399.67164179" y="1499.0"/>
      <point x="1903.0" y="1050.65671642"/>
      <point x="1903" y="682" type="qcurve" smooth="yes"/>
      <point x="1903.0" y="377.52238806"/>
      <point x="1593.1641791" y="43.0"/>
      <point x="1376" y="43" type="qcurve" smooth="yes"/>
      <point x="1238.68656716" y="43.0"/>
      <point x="1091.62686567" y="174.23880597"/>
      <point x="1067" y="272" type="qcurve"/>
      <point x="1059" y="272" type="line"/>
      <point x="997.805970149" y="168.268656716"/>
      <point x="820.253731343" y="43.0"/>
      <point x="721" y="43" type="qcurve" smooth="yes"/>
      <point x="601.597014925" y="43.0"/>
      <point x="477.0" y="216.044776119"/>
      <point x="477" y="375" type="qcurve" smooth="yes"/>
      <point x="477.0" y="586.940298507"/>
      <point x="661.970149254" y="1069.0"/>
      <point x="856" y="1069" type="qcurve" smooth="yes"/>
      <point x="961.223880597" y="1069.0"/>
      <point x="1073.43283582" y="961.313432836"/>
      <point x="1110" y="874" type="qcurve"/>
      <point x="1118" y="874" type="line"/>
      <point x="1151" y="1071" type="line"/>
      <point x="1520" y="1026" type="line"/>
      <point x="1399" y="352" type="line" smooth="yes"/>
      <point x="1383.32835821" y="266.925373134"/>
      <point x="1437.8358209" y="172.0"/>
      <point x="1505" y="172" type="qcurve" smooth="yes"/>
      <point x="1625.89552239" y="172.0"/>
      <point x="1802.0" y="463.820895522"/>
      <point x="1802" y="678" type="qcurve" smooth="yes"/>
      <point x="1802.0" y="1015.31343284"/>
      <point x="1369.04477612" y="1413.0"/>
      <point x="1028" y="1413" type="qcurve" smooth="yes"/>
      <point x="673.52238806" y="1413.0"/>
      <point x="186.0" y="905.447761194"/>
      <point x="186" y="545" type="qcurve" smooth="yes"/>
      <point x="186.0" y="164.402985075"/>
      <point x="638.358208955" y="-307.0"/>
      <point x="1010" y="-307" type="qcurve" smooth="yes"/>
      <point x="1192.8358209" y="-307.0"/>
      <point x="1472.92537313" y="-234.626865672"/>
      <point x="1608" y="-160" type="qcurve"/>
      <point x="1651" y="-233" type="line"/>
      <point x="1508.46268657" y="-309.865671642"/>
      <point x="1204.50746269" y="-393.0"/>
      <point x="1006" y="-393" type="qcurve" smooth="yes"/>
      <point x="593.313432836" y="-393.0"/>
      <point x="84.0" y="122.850746269"/>
      <point x="84" y="543" type="qcurve" smooth="yes"/>
      <point x="84.0" y="945.985074627"/>
      <point x="645.940298507" y="1499.0"/>
    </contour>
    <contour>
      <point x="920" y="262" type="qcurve" smooth="yes"/>
      <point x="982.686567164" y="262.0"/>
      <point x="1077.0" y="536.343283582"/>
      <point x="1077" y="705" type="qcurve" smooth="yes"/>
      <point x="1077.0" y="762.462686567"/>
      <point x="1043.07462687" y="823.0"/>
      <point x="1008" y="823" type="qcurve" smooth="yes"/>
      <point x="945.313432836" y="823.0"/>
      <point x="850.0" y="548.910447761"/>
      <point x="850" y="381" type="qcurve" smooth="yes"/>
      <point x="850.0" y="322.791044776"/>
      <point x="884.179104478" y="262.0"/>
    </contour>
  </outline>
</glyph>
<glyph name="B" format="1">
  <advance width="1298.432"/>
  <unicode hex="0042"/>
  <outline>
    <contour>
      <point x="987" y="772" type="line"/>
      <point x="1124.31343284" y="723.492537313"/>
      <point x="1276.0" y="556.268656716"/>
      <point x="1276" y="410" type="qcurve" smooth="yes"/>
      <point x="1276.0" y="213.731343284"/>
      <point x="972.388059701" y="0.0"/>
      <point x="700" y="0" type="qcurve" smooth="yes"/>
      <point x="86" y="0" type="line"/>
      <point x="86" y="1475" type="line"/>
      <point x="698" y="1475" type="line" smooth="yes"/>
      <point x="945.76119403" y="1475.0"/>
      <point x="1235.0" y="1284.56716418"/>
      <point x="1235" y="1098" type="qcurve" smooth="yes"/>
      <point x="1235.0" y="966.656716418"/>
      <point x="1078.79104478" y="816.567164179"/>
      <point x="987" y="780" type="qcurve"/>
    </contour>
    <contour>
      <point x="612" y="307" type="line" smooth="yes"/>
      <point x="720.955223881" y="307.0"/>
      <point x="852.0" y="372.223880597"/>
      <point x="852" y="467" type="qcurve" smooth="yes"/>
      <point x="852.0" y="561.776119403"/>
      <point x="717.970149254" y="627.0"/>
      <point x="612" y="627" type="qcurve" smooth="yes"/>
      <point x="510" y="627" type="line"/>
      <point x="510" y="307" type="line"/>
    </contour>
    <contour>
      <point x="633" y="901" type="line" smooth="yes"/>
      <point x="718.820895522" y="901.0"/>
      <point x="811.0" y="968.328358209"/>
      <point x="811" y="1034" type="qcurve" smooth="yes"/>
      <point x="811.0" y="1099.67164179"/>
      <point x="718.820895522" y="1167.0"/>
      <point x="633" y="1167" type="qcurve" smooth="yes"/>
      <point x="510" y="1167" type="line"/>
      <point x="510" y="901" type="line"/>
    </contour>
  </outline>
</glyph>
<glyph name="F" format="1">
  <advance width="1105.92"/>
  <unicode hex="0046"/>
  <outline>
    <contour>
      <point x="1069" y="1475" type="line"/>
      <point x="1069" y="1135" type="line"/>
      <point x="528" y="1135" type="line"/>
      <point x="528" y="874" type="line"/>
      <point x="879" y="874" type="line"/>
      <point x="879" y="545" type="line"/>
      <point x="528" y="545" type="line"/>
      <point x="528" y="0" type="line"/>
      <point x="86" y="0" type="line"/>
      <point x="86" y="1475" type="line"/>
    </contour>
  </outline>
</glyph>
<glyph name="H" format="1">
  <advance width="1355.776"/>
  <unicode hex="0048"/>
  <outline>
    <contour>
      <point x="1270" y="1475" type="line"/>
      <point x="1270" y="0" type="line"/>
      <point x="827" y="0" type="line"/>
      <point x="827" y="565" type="line"/>
      <point x="528" y="565" type="line"/>
      <point x="528" y="0" type="line"/>
      <point x="86" y="0" type="line"/>
      <point x="86" y="1475" type="line"/>
      <point x="528" y="1475" type="line"/>
      <point x="528" y="946" type="line"/>
      <point x="827" y="946" type="line"/>
      <point x="827" y="1475" type="line"/>
    </contour>
  </outline>
</glyph>
<glyph name="L" format="1">
  <advance width="1105.92"/>
  <unicode hex="004C"/>
  <outline>
    <contour>
      <point x="1069" y="369" type="line"/>
      <point x="1069" y="0" type="line"/>
      <point x="86" y="0" type="line"/>
      <point x="86" y="1475" type="line"/>
      <point x="528" y="1475" type="line"/>
      <point x="528" y="369" type="line"/>
    </contour>
  </outline>
</glyph>
<glyph name="N" format="1">
  <advance width="1355.776"/>
  <unicode hex="004E"/>
  <outline>
    <contour>
      <point x="1270" y="1475" type="line"/>
      <point x="1270" y="0" type="line"/>
      <point x="895" y="0" type="line"/>
      <point x="500" y="756" type="line"/>
      <point x="492" y="756" type="line"/>
      <point x="492" y="0" type="line"/>
      <point x="86" y="0" type="line"/>
      <point x="86" y="1475" type="line"/>
      <point x="502" y="1475" type="line"/>
      <point x="856" y="793" type="line"/>
      <point x="864" y="793" type="line"/>
      <point x="864" y="1475" type="line"/>
    </contour>
  </outline>
</glyph>
<glyph name="O" format="1">
  <advance width="1359.872"/>
  <unicode hex="004F"/>
  <outline>
    <contour>
      <point x="1298" y="809" type="qcurve" smooth="yes"/>
      <point x="1298" y="666" type="line" smooth="yes"/>
      <point x="1298.0" y="321.970149254"/>
      <point x="955.373134328" y="-25.0"/>
      <point x="680" y="-25" type="qcurve" smooth="yes"/>
      <point x="404.626865672" y="-25.0"/>
      <point x="61.0" y="321.970149254"/>
      <point x="61" y="666" type="qcurve" smooth="yes"/>
      <point x="61" y="809" type="line" smooth="yes"/>
      <point x="61.0" y="1153.02985075"/>
      <point x="404.626865672" y="1499.0"/>
      <point x="680" y="1499" type="qcurve" smooth="yes"/>
      <point x="955.373134328" y="1499.0"/>
      <point x="1298.0" y="1153.02985075"/>
    </contour>
    <contour>
      <point x="680" y="307" type="qcurve" smooth="yes"/>
      <point x="764.328358209" y="307.0"/>
      <point x="840.0" y="451.52238806"/>
      <point x="840" y="606" type="qcurve" smooth="yes"/>
      <point x="840" y="868" type="line" smooth="yes"/>
      <point x="840.0" y="1022.47761194"/>
      <point x="764.328358209" y="1167.0"/>
      <point x="680" y="1167" type="qcurve" smooth="yes"/>
      <point x="595.671641791" y="1167.0"/>
      <point x="520.0" y="1022.47761194"/>
      <point x="520" y="868" type="qcurve" smooth="yes"/>
      <point x="520" y="606" type="line" smooth="yes"/>
      <point x="520.0" y="451.52238806"/>
      <point x="595.671641791" y="307.0"/>
    </contour>
  </outline>
</glyph>
<glyph name="P" format="1">
  <advance width="1239.04"/>
  <unicode hex="0050"/>
  <outline>
    <contour>
      <point x="647" y="1475" type="line" smooth="yes"/>
      <point x="903.71641791" y="1475.0"/>
      <point x="1217.0" y="1251.58208955"/>
      <point x="1217" y="1018" type="qcurve" smooth="yes"/>
      <point x="1217.0" y="768.746268657"/>
      <point x="906.104477612" y="524.0"/>
      <point x="627" y="524" type="qcurve" smooth="yes"/>
      <point x="528" y="524" type="line"/>
      <point x="528" y="0" type="line"/>
      <point x="86" y="0" type="line"/>
      <point x="86" y="1475" type="line"/>
    </contour>
    <contour>
      <point x="600" y="840" type="line" smooth="yes"/>
      <point x="687.313432836" y="840.0"/>
      <point x="776.0" y="932.149253731"/>
      <point x="776" y="1012" type="qcurve" smooth="yes"/>
      <point x="776.0" y="1089.6119403"/>
      <point x="684.328358209" y="1167.0"/>
      <point x="600" y="1167" type="qcurve" smooth="yes"/>
      <point x="510" y="1167" type="line"/>
      <point x="510" y="840" type="line"/>
    </contour>
  </outline>
</glyph>
<glyph name="R" format="1">
  <advance width="1300.48"/>
  <unicode hex="0052"/>
  <outline>
    <contour>
      <point x="983" y="621" type="qcurve"/>
      <point x="1303" y="0" type="line"/>
      <point x="834" y="0" type="line"/>
      <point x="567" y="553" type="line"/>
      <point x="528" y="553" type="line"/>
      <point x="528" y="0" type="line"/>
      <point x="86" y="0" type="line"/>
      <point x="86" y="1475" type="line"/>
      <point x="668" y="1475" type="line" smooth="yes"/>
      <point x="920.23880597" y="1475.0"/>
      <point x="1227.0" y="1251.58208955"/>
      <point x="1227" y="1018" type="qcurve" smooth="yes"/>
      <point x="1227.0" y="878.447761194"/>
      <point x="1100.91044776" y="675.47761194"/>
    </contour>
    <contour>
      <point x="610" y="840" type="line" smooth="yes"/>
      <point x="697.313432836" y="840.0"/>
      <point x="786.0" y="932.149253731"/>
      <point x="786" y="1012" type="qcurve" smooth="yes"/>
      <point x="786.0" y="1089.6119403"/>
      <point x="694.328358209" y="1167.0"/>
      <point x="610" y="1167" type="qcurve" smooth="yes"/>
      <point x="510" y="1167" type="line"/>
      <point x="510" y="840" type="line"/>
    </contour>
  </outline>
</glyph>
<glyph name="W" format="1">
  <advance width="2060.288"/>
  <unicode hex="0057"/>
  <outline>
    <contour>
      <point x="1591" y="1475" type="line"/>
      <point x="2038" y="1475" type="line"/>
      <point x="1692" y="-8" type="line"/>
      <point x="1229" y="-8" type="line"/>
      <point x="1034" y="905" type="line"/>
      <point x="1026" y="905" type="line"/>
      <point x="831" y="-8" type="line"/>
      <point x="369" y="-8" type="line"/>
      <point x="23" y="1475" type="line"/>
      <point x="481" y="1475" type="line"/>
      <point x="623" y="535" type="line"/>
      <point x="631" y="535" type="line"/>
      <point x="813" y="1475" type="line"/>
      <point x="1260" y="1475" type="line"/>
      <point x="1442" y="535" type="line"/>
      <point x="1450" y="535" type="line"/>
    </contour>
  </outline>
</glyph>
<glyph name="Y" format="1">
  <advance width="1351.68"/>
  <unicode hex="0059"/>
  <outline>
    <contour>
      <point x="913" y="1475" type="line"/>
      <point x="1346" y="1475" type="line"/>
      <point x="897" y="590" type="line"/>
      <point x="897" y="0" type="line"/>
      <point x="455" y="0" type="line"/>
      <point x="455" y="582" type="line"/>
      <point x="6" y="1475" type="line"/>
      <point x="479" y="1475" type="line"/>
      <point x="696" y="983" type="line"/>
    </contour>
  </outline>
</glyph>
<glyph name="bracketleft" format="1">
  <advance width="860.16"/>
  <unicode hex="005B"/>
  <outline>
    <contour>
      <point x="817" y="-10" type="line"/>
      <point x="817" y="-164" type="line"/>
      <point x="109" y="-186" type="line"/>
      <point x="109" y="1497" type="line"/>
      <point x="817" y="1475" type="line"/>
      <point x="817" y="1321" type="line"/>
      <point x="496" y="1331" type="line"/>
      <point x="496" y="-20" type="line"/>
    </contour>
  </outline>
</glyph>
<glyph name="asciicircum" format="1">
  <advance width="1126.4"/>
  <unicode hex="005E"/>
  <outline>
    <contour>
      <point x="754" y="1485" type="line"/>
      <point x="1092" y="834" type="line"/>
      <point x="823" y="834" type="line"/>
      <point x="563" y="1139" type="line"/>
      <point x="303" y="834" type="line"/>
      <point x="35" y="834" type="line"/>
      <point x="373" y="1485" type="line"/>
    </contour>
  </outline>
</glyph>
<glyph name="a" format="1">
  <advance width="1120.256"/>
  <unicode hex="0061"/>
  <outline>
    <contour>
      <point x="1108" y="129" type="qcurve"/>
      <point x="1108" y="-10" type="line"/>
      <point x="893.820895522" y="-10.0"/>
      <point x="677.089552239" y="65.3582089552"/>
      <point x="645" y="137" type="qcurve"/>
      <point x="635" y="137" type="line"/>
      <point x="561.865671642" y="63.8656716418"/>
      <point x="415.552238806" y="-10.0"/>
      <point x="326" y="-10" type="qcurve" smooth="yes"/>
      <point x="206.597014925" y="-10.0"/>
      <point x="33.0" y="142.462686567"/>
      <point x="33" y="285" type="qcurve" smooth="yes"/>
      <point x="33.0" y="452.910447761"/>
      <point x="318.552238806" y="637.597014925"/>
      <point x="629" y="657" type="qcurve"/>
      <point x="629" y="741" type="line" smooth="yes"/>
      <point x="629.0" y="788.76119403"/>
      <point x="568.71641791" y="846.0"/>
      <point x="512" y="846" type="qcurve" smooth="yes"/>
      <point x="456.776119403" y="846.0"/>
      <point x="303.432835821" y="801.208955224"/>
      <point x="190" y="743" type="qcurve"/>
      <point x="84" y="983" type="line"/>
      <point x="213.850746269" y="1050.1641791"/>
      <point x="452.656716418" y="1122.0"/>
      <point x="584" y="1122" type="qcurve" smooth="yes"/>
      <point x="810.119402985" y="1122.0"/>
      <point x="1012.0" y="948.0"/>
      <point x="1012" y="748" type="qcurve" smooth="yes"/>
      <point x="1012" y="229" type="line" smooth="yes"/>
      <point x="1012.0" y="173.029850746"/>
      <point x="1048.29850746" y="137.955223881"/>
    </contour>
    <contour>
      <point x="522" y="225" type="qcurve" smooth="yes"/>
      <point x="552.597014925" y="225.0"/>
      <point x="601.388059701" y="235.820895522"/>
      <point x="629" y="250" type="qcurve"/>
      <point x="629" y="516" type="line"/>
      <point x="499.149253731" y="495.850746269"/>
      <point x="408.0" y="406.656716418"/>
      <point x="408" y="338" type="qcurve" smooth="yes"/>
      <point x="408.0" y="284.268656716"/>
      <point x="467.52238806" y="225.0"/>
    </contour>
  </outline>
</glyph>
<glyph name="f" format="1">
  <advance width="876.544"/>
  <unicode hex="0066"/>
  <outline>
    <contour>
      <point x="909" y="1524" type="qcurve"/>
      <point x="909" y="1255" type="line"/>
      <point x="869.447761194" y="1267.68656716"/>
      <point x="798.0" y="1278.0"/>
      <point x="748" y="1278" type="qcurve" smooth="yes"/>
      <point x="677.104477612" y="1278.0"/>
      <point x="614.0" y="1223.17910448"/>
      <point x="614" y="1159" type="qcurve" smooth="yes"/>
      <point x="614" y="1106" type="line"/>
      <point x="870" y="1106" type="line"/>
      <point x="870" y="831" type="line"/>
      <point x="614" y="831" type="line"/>
      <point x="614" y="0" type="line"/>
      <point x="203" y="0" type="line"/>
      <point x="203" y="831" type="line"/>
      <point x="18" y="831" type="line"/>
      <point x="18" y="1106" type="line"/>
      <point x="203" y="1106" type="line"/>
      <point x="203" y="1149" type="line" smooth="yes"/>
      <point x="203.0" y="1349.0"/>
      <point x="419.805970149" y="1554.0"/>
      <point x="631" y="1554" type="qcurve" smooth="yes"/>
      <point x="724.28358209" y="1554.0"/>
      <point x="849.298507463" y="1538.92537313"/>
    </contour>
  </outline>
</glyph>
<glyph name="k" format="1">
  <advance width="1224.704"/>
  <unicode hex="006B"/>
  <outline>
    <contour>
      <point x="924" y="567" type="line"/>
      <point x="1239" y="0" type="line"/>
      <point x="795" y="0" type="line"/>
      <point x="512" y="557" type="line"/>
      <point x="512" y="563" type="line"/>
      <point x="782" y="1110" type="line"/>
      <point x="1217" y="1110" type="line"/>
    </contour>
    <contour>
      <point x="498" y="1544" type="line"/>
      <point x="498" y="0" type="line"/>
      <point x="80" y="0" type="line"/>
      <point x="80" y="1495" type="line"/>
    </contour>
  </outline>
</glyph>
<glyph name="m" format="1">
  <advance width="1763.328"/>
  <unicode hex="006D"/>
  <outline>
    <contour>
      <point x="1698" y="821" type="qcurve" smooth="yes"/>
      <point x="1698" y="0" type="line"/>
      <point x="1280" y="0" type="line"/>
      <point x="1280" y="725" type="line" smooth="yes"/>
      <point x="1280.0" y="780.223880597"/>
      <point x="1236.50746269" y="836.0"/>
      <point x="1188" y="836" type="qcurve" smooth="yes"/>
      <point x="1164.86567164" y="836.0"/>
      <point x="1120.3880597" y="822.940298507"/>
      <point x="1098" y="811" type="qcurve"/>
      <point x="1098" y="0" type="line"/>
      <point x="680" y="0" type="line"/>
      <point x="680" y="725" type="line" smooth="yes"/>
      <point x="680.0" y="780.223880597"/>
      <point x="636.507462687" y="836.0"/>
      <point x="588" y="836" type="qcurve" smooth="yes"/>
      <point x="564.865671642" y="836.0"/>
      <point x="520.388059701" y="822.940298507"/>
      <point x="498" y="811" type="qcurve"/>
      <point x="498" y="0" type="line"/>
      <point x="80" y="0" type="line"/>
      <point x="80" y="1077" type="line"/>
      <point x="498" y="1126" type="line"/>
      <point x="498" y="905" type="line"/>
      <point x="506" y="905" type="line"/>
      <point x="600.776119403" y="1022.91044776"/>
      <point x="752.23880597" y="1124.0"/>
      <point x="850" y="1124" type="qcurve" smooth="yes"/>
      <point x="949.253731343" y="1124.0"/>
      <point x="1074.8358209" y="1016.94029851"/>
      <point x="1092" y="905" type="qcurve"/>
      <point x="1106" y="905" type="line"/>
      <point x="1200.7761194" y="1022.91044776"/>
      <point x="1352.23880597" y="1124.0"/>
      <point x="1450" y="1124" type="qcurve" smooth="yes"/>
      <point x="1566.41791045" y="1124.0"/>
      <point x="1698.0" y="976.970149254"/>
    </contour>
  </outline>
</glyph>
<glyph name="q" format="1">
  <advance width="1169.408"/>
  <unicode hex="0071"/>
  <outline>
    <contour>
      <point x="1090" y="1077" type="line"/>
      <point x="1090" y="-385" type="line"/>
      <point x="672" y="-385" type="line"/>
      <point x="672" y="178" type="line"/>
      <point x="664" y="178" type="line"/>
      <point x="599.820895522" y="89.1940298507"/>
      <point x="466.791044776" y="-14.0"/>
      <point x="375" y="-14" type="qcurve" smooth="yes"/>
      <point x="216.044776119" y="-14.0"/>
      <point x="51.0" y="265.28358209"/>
      <point x="51" y="522" type="qcurve" smooth="yes"/>
      <point x="51" y="588" type="line" smooth="yes"/>
      <point x="51.0" y="844.71641791"/>
      <point x="223.507462687" y="1124.0"/>
      <point x="375" y="1124" type="qcurve" smooth="yes"/>
      <point x="475.746268657" y="1124.0"/>
      <point x="605.791044776" y="1023.79104478"/>
      <point x="664" y="932" type="qcurve"/>
      <point x="672" y="932" type="line"/>
      <point x="672" y="1126" type="line"/>
    </contour>
    <contour>
      <point x="567" y="248" type="qcurve" smooth="yes"/>
      <point x="616.253731343" y="248.0"/>
      <point x="672.0" y="383.119402985"/>
      <point x="672" y="557" type="qcurve" smooth="yes"/>
      <point x="672.0" y="727.895522388"/>
      <point x="616.253731343" y="862.0"/>
      <point x="567" y="862" type="qcurve" smooth="yes"/>
      <point x="518.492537313" y="862.0"/>
      <point x="461.0" y="727.895522388"/>
      <point x="461" y="557" type="qcurve" smooth="yes"/>
      <point x="461.0" y="383.119402985"/>
      <point x="518.492537313" y="248.0"/>
    </contour>
  </outline>
</glyph>
<glyph name="s" format="1">
  <advance width="993.28"/>
  <unicode hex="0073"/>
  <outline>
    <contour>
      <point x="592" y="715" type="qcurve" smooth="yes"/>
      <point x="793.492537313" y="662.76119403"/>
      <point x="971.0" y="484.298507463"/>
      <point x="971" y="344" type="qcurve" smooth="yes"/>
      <point x="971.0" y="161.910447761"/>
      <point x="712.417910448" y="-20.0"/>
      <point x="496" y="-20" type="qcurve" smooth="yes"/>
      <point x="319.880597015" y="-20.0"/>
      <point x="80.6268656716" y="92.6865671642"/>
      <point x="6" y="180" type="qcurve"/>
      <point x="209" y="379" type="line"/>
      <point x="267.208955224" y="302.134328358"/>
      <point x="432.865671642" y="227.0"/>
      <point x="506" y="227" type="qcurve" smooth="yes"/>
      <point x="559.731343284" y="227.0"/>
      <point x="618.0" y="259.895522388"/>
      <point x="618" y="289" type="qcurve" smooth="yes"/>
      <point x="618.0" y="319.597014925"/>
      <point x="547.373134328" y="360.910447761"/>
      <point x="422" y="393" type="qcurve" smooth="yes"/>
      <point x="219.014925373" y="446.731343284"/>
      <point x="53.0" y="633.671641791"/>
      <point x="53" y="768" type="qcurve" smooth="yes"/>
      <point x="53.0" y="947.104477612"/>
      <point x="313.462686567" y="1130.0"/>
      <point x="506" y="1130" type="qcurve" smooth="yes"/>
      <point x="654.507462687" y="1130.0"/>
      <point x="866.328358209" y="1037.82089552"/>
      <point x="932" y="952" type="qcurve"/>
      <point x="729" y="754" type="line"/>
      <point x="669.298507463" y="824.149253731"/>
      <point x="561.671641791" y="883.0"/>
      <point x="496" y="883" type="qcurve" smooth="yes"/>
      <point x="449.731343284" y="883.0"/>
      <point x="406.0" y="847.119402985"/>
      <point x="406" y="821" type="qcurve" smooth="yes"/>
      <point x="406.0" y="791.895522388"/>
      <point x="472.597014925" y="745.597014925"/>
    </contour>
  </outline>
</glyph>
<glyph name="u" format="1">
  <advance width="1171.456"/>
  <unicode hex="0075"/>
  <outline>
    <contour>
      <point x="1092" y="1110" type="line"/>
      <point x="1092" y="33" type="line"/>
      <point x="674" y="-16" type="line"/>
      <point x="674" y="205" type="line"/>
      <point x="666" y="205" type="line"/>
      <point x="571.223880597" y="87.0895522388"/>
      <point x="410.76119403" y="-14.0"/>
      <point x="313" y="-14" type="qcurve" smooth="yes"/>
      <point x="197.328358209" y="-14.0"/>
      <point x="66.0" y="133.029850746"/>
      <point x="66" y="289" type="qcurve" smooth="yes"/>
      <point x="66" y="1110" type="line"/>
      <point x="483" y="1110" type="line"/>
      <point x="483" y="385" type="line" smooth="yes"/>
      <point x="483.0" y="329.776119403"/>
      <point x="526.492537313" y="274.0"/>
      <point x="575" y="274" type="qcurve" smooth="yes"/>
      <point x="599.626865672" y="274.0"/>
      <point x="647.880597015" y="287.567164179"/>
      <point x="674" y="301" type="qcurve"/>
      <point x="674" y="1110" type="line"/>
    </contour>
  </outline>
</glyph>
<glyph name="w" format="1">
  <advance width="1773.568"/>
  <unicode hex="0077"/>
  <outline>
    <contour>
      <point x="1350" y="1110" type="line"/>
      <point x="1757" y="1110" type="line"/>
      <point x="1464" y="-8" type="line"/>
      <point x="1030" y="-8" type="line"/>
      <point x="891" y="614" type="line"/>
      <point x="752" y="-8" type="line"/>
      <point x="309" y="-8" type="line"/>
      <point x="16" y="1110" type="line"/>
      <point x="444" y="1110" type="line"/>
      <point x="549" y="446" type="line"/>
      <point x="694" y="1110" type="line"/>
      <point x="1100" y="1110" type="line"/>
      <point x="1245" y="446" type="line"/>
    </contour>
  </outline>
</glyph>
<glyph name="y" format="1">
  <advance width="1187.84"/>
  <unicode hex="0079"/>
  <outline>
    <contour>
      <point x="770" y="1110" type="line"/>
      <point x="1178" y="1110" type="line"/>
      <point x="801" y="-80" type="line" smooth="yes"/>
      <point x="742.791044776" y="-263.582089552"/>
      <point x="545.074626866" y="-391.0"/>
      <point x="360" y="-391" type="qcurve" smooth="yes"/>
      <point x="260.746268657" y="-391.0"/>
      <point x="130.179104478" y="-366.626865672"/>
      <point x="66" y="-342" type="qcurve"/>
      <point x="66" y="-86" type="line"/>
      <point x="137" y="-86" type="line"/>
      <point x="167.597014925" y="-135.253731343"/>
      <point x="231.776119403" y="-182.0"/>
      <point x="287" y="-182" type="qcurve" smooth="yes"/>
      <point x="334.014925373" y="-182.0"/>
      <point x="393.820895522" y="-152.104477612"/>
      <point x="408" y="-123" type="qcurve" smooth="yes"/>
      <point x="416" y="-106" type="line"/>
      <point x="10" y="1110" type="line"/>
      <point x="438" y="1110" type="line"/>
      <point x="604" y="395" type="line"/>
    </contour>
  </outline>
</glyph>
<glyph name="z" format="1">
  <advance width="993.28"/>
  <unicode hex="007A"/>
  <outline>
    <contour>
      <point x="954" y="274" type="line"/>
      <point x="954" y="0" type="line"/>
      <point x="47" y="0" type="line"/>
      <point x="47" y="244" type="line"/>
      <point x="483" y="836" type="line"/>
      <point x="78" y="836" type="line"/>
      <point x="78" y="1110" type="line"/>
      <point x="954" y="1110" type="line"/>
      <point x="954" y="866" type="line"/>
      <point x="518" y="274" type="line"/>
    </contour>
  </outline>
</glyph>
<glyph name="braceleft" format="1">
  <advance width="983.04"/>
  <unicode hex="007B"/>
  <outline>
    <contour>
      <point x="942" y="-10" type="line"/>
      <point x="942" y="-164" type="line"/>
      <point x="571" y="-164" type="line" smooth="yes"/>
      <point x="412.044776119" y="-164.0"/>
      <point x="246.0" y="-33.3432835821"/>
      <point x="246" y="98" type="qcurve" smooth="yes"/>
      <point x="246.0" y="160.686567164"/>
      <point x="287.0" y="316.343283582"/>
      <point x="287" y="385" type="qcurve" smooth="yes"/>
      <point x="287.0" y="493.208955224"/>
      <point x="132.925373134" y="580.0"/>
      <point x="18" y="580" type="qcurve"/>
      <point x="18" y="731" type="line"/>
      <point x="132.925373134" y="731.0"/>
      <point x="287.0" y="817.044776119"/>
      <point x="287" y="926" type="qcurve" smooth="yes"/>
      <point x="287.0" y="994.656716418"/>
      <point x="246.0" y="1149.31343284"/>
      <point x="246" y="1212" type="qcurve" smooth="yes"/>
      <point x="246.0" y="1344.08955224"/>
      <point x="412.044776119" y="1475.0"/>
      <point x="571" y="1475" type="qcurve" smooth="yes"/>
      <point x="942" y="1475" type="line"/>
      <point x="942" y="1321" type="line"/>
      <point x="778" y="1321" type="line" smooth="yes"/>
      <point x="706.358208955" y="1321.0"/>
      <point x="633.0" y="1256.17910448"/>
      <point x="633" y="1192" type="qcurve" smooth="yes"/>
      <point x="633.0" y="1144.23880597"/>
      <point x="674.0" y="988.880597015"/>
      <point x="674" y="915" type="qcurve" smooth="yes"/>
      <point x="674.0" y="797.835820896"/>
      <point x="544.074626866" y="692.358208955"/>
      <point x="459" y="664" type="qcurve"/>
      <point x="459" y="647" type="line"/>
      <point x="544.074626866" y="617.895522388"/>
      <point x="674.0" y="512.910447761"/>
      <point x="674" y="395" type="qcurve" smooth="yes"/>
      <point x="674.0" y="321.865671642"/>
      <point x="633.0" y="166.014925373"/>
      <point x="633" y="119" type="qcurve" smooth="yes"/>
      <point x="633.0" y="54.8208955224"/>
      <point x="706.358208955" y="-10.0"/>
      <point x="778" y="-10" type="qcurve" smooth="yes"/>
    </contour>
  </outline>
</glyph>
<glyph name="asciitilde" format="1">
  <advance width="872.448"/>
  <unicode hex="007E"/>
  <outline>
    <contour>
      <point x="627" y="778" type="qcurve"/>
      <point x="811" y="778" type="line"/>
      <point x="822.940298507" y="592.925373134"/>
      <point x="719.910447761" y="420.0"/>
      <point x="602" y="420" type="qcurve" smooth="yes"/>
      <point x="495.28358209" y="420.0"/>
      <point x="361.23880597" y="522.0"/>
      <point x="309" y="522" type="qcurve" smooth="yes"/>
      <point x="276.910447761" y="522.0"/>
      <point x="247.492537313" y="477.731343284"/>
      <point x="246" y="424" type="qcurve"/>
      <point x="61" y="424" type="line"/>
      <point x="49.0597014925" y="609.074626866"/>
      <point x="152.835820896" y="782.0"/>
      <point x="270" y="782" type="qcurve" smooth="yes"/>
      <point x="377.462686567" y="782.0"/>
      <point x="511.507462687" y="680.0"/>
      <point x="563" y="680" type="qcurve" smooth="yes"/>
      <point x="595.089552239" y="680.0"/>
      <point x="625.507462687" y="725.014925373"/>
    </contour>
  </outline>
</glyph>
<glyph name="exclamdown" format="1">
  <advance width="626.688"/>
  <unicode hex="00A1"/>
  <outline>
    <contour>
      <point x="313" y="1489" type="qcurve" smooth="yes"/>
      <point x="404.791044776" y="1489.0"/>
      <point x="528.0" y="1365.79104478"/>
      <point x="528" y="1274" type="qcurve" smooth="yes"/>
      <point x="528.0" y="1182.20895522"/>
      <point x="404.791044776" y="1059.0"/>
      <point x="313" y="1059" type="qcurve" smooth="yes"/>
      <point x="221.208955224" y="1059.0"/>
      <point x="98.0" y="1182.20895522"/>
      <point x="98" y="1274" type="qcurve" smooth="yes"/>
      <point x="98.0" y="1365.79104478"/>
      <point x="221.208955224" y="1489.0"/>
    </contour>
    <contour>
      <point x="438" y="956" type="line"/>
      <point x="561" y="0" type="line"/>
      <point x="66" y="0" type="line"/>
      <point x="188" y="956" type="line"/>
    </contour>
  </outline>
</glyph>
<glyph name="sterling" format="1">
  <advance width="1290.24"/>
  <unicode hex="00A3"/>
  <outline>
    <contour>
      <point x="1016" y="481" type="qcurve"/>
      <point x="1272" y="393" type="line"/>
      <point x="1218.26865672" y="184.044776119"/>
      <point x="1043.41791045" y="-12.0"/>
      <point x="877" y="-12" type="qcurve" smooth="yes"/>
      <point x="775.507462687" y="-12.0"/>
      <point x="598.746268657" y="48.5373134328"/>
      <point x="498" y="106" type="qcurve"/>
      <point x="422.626865672" y="53.0149253731"/>
      <point x="207.791044776" y="-9.01492537313"/>
      <point x="66" y="-12" type="qcurve"/>
      <point x="66" y="274" type="line"/>
      <point x="194.358208955" y="288.179104478"/>
      <point x="303.0" y="391.044776119"/>
      <point x="303" y="500" type="qcurve" smooth="yes"/>
      <point x="303.0" y="535.074626866"/>
      <point x="292.462686567" y="602.910447761"/>
      <point x="285" y="635" type="qcurve"/>
      <point x="57" y="635" type="line"/>
      <point x="57" y="829" type="line"/>
      <point x="219" y="829" type="line"/>
      <point x="201.089552239" y="884.223880597"/>
      <point x="174.0" y="1002.31343284"/>
      <point x="174" y="1065" type="qcurve" smooth="yes"/>
      <point x="174.0" y="1260.52238806"/>
      <point x="437.253731343" y="1499.0"/>
      <point x="688" y="1499" type="qcurve" smooth="yes"/>
      <point x="944.71641791" y="1499.0"/>
      <point x="1171.29850746" y="1298.46268657"/>
      <point x="1231" y="1141" type="qcurve"/>
      <point x="866" y="987" type="line"/>
      <point x="829.432835821" y="1089.23880597"/>
      <point x="747.671641791" y="1190.0"/>
      <point x="682" y="1190" type="qcurve" smooth="yes"/>
      <point x="620.805970149" y="1190.0"/>
      <point x="559.0" y="1123.68656716"/>
      <point x="559" y="1061" type="qcurve" smooth="yes"/>
      <point x="559.0" y="1007.26865672"/>
      <point x="593.104477612" y="893.179104478"/>
      <point x="614" y="829" type="qcurve"/>
      <point x="979" y="829" type="line"/>
      <point x="979" y="635" type="line"/>
      <point x="666" y="635" type="line"/>
      <point x="671.970149254" y="602.910447761"/>
      <point x="678.0" y="532.059701493"/>
      <point x="678" y="494" type="qcurve" smooth="yes"/>
      <point x="678.0" y="455.194029851"/>
      <point x="668.701492537" y="383.582089552"/>
      <point x="659" y="350" type="qcurve"/>
      <point x="699.298507463" y="338.059701493"/>
      <point x="770.910447761" y="324.0"/>
      <point x="803" y="324" type="qcurve" smooth="yes"/>
      <point x="891.805970149" y="324.0"/>
      <point x="972.71641791" y="394.432835821"/>
    </contour>
  </outline>
</glyph>
<glyph name="ordfeminine" format="1">
  <advance width="860.16"/>
  <unicode hex="00AA"/>
  <outline>
    <contour>
      <point x="797" y="819" type="qcurve"/>
      <point x="797" y="727" type="line"/>
      <point x="654.462686567" y="727.0"/>
      <point x="510.134328358" y="775.985074627"/>
      <point x="487" y="823" type="qcurve"/>
      <point x="439.985074627" y="775.985074627"/>
      <point x="339.447761194" y="727.0"/>
      <point x="279" y="727" type="qcurve" smooth="yes"/>
      <point x="194.671641791" y="727.0"/>
      <point x="78.0" y="829.223880597"/>
      <point x="78" y="924" type="qcurve" smooth="yes"/>
      <point x="78.0" y="1036.68656716"/>
      <point x="269.537313433" y="1161.31343284"/>
      <point x="477" y="1174" type="qcurve"/>
      <point x="477" y="1231" type="line" smooth="yes"/>
      <point x="477.0" y="1261.59701493"/>
      <point x="435.805970149" y="1300.0"/>
      <point x="397" y="1300" type="qcurve" smooth="yes"/>
      <point x="360.432835821" y="1300.0"/>
      <point x="258.865671642" y="1270.55223881"/>
      <point x="182" y="1231" type="qcurve"/>
      <point x="111" y="1393" type="line"/>
      <point x="197.567164179" y="1437.02985075"/>
      <point x="357.940298507" y="1485.0"/>
      <point x="446" y="1485" type="qcurve" smooth="yes"/>
      <point x="597.492537313" y="1485.0"/>
      <point x="733.0" y="1367.8358209"/>
      <point x="733" y="1235" type="qcurve" smooth="yes"/>
      <point x="733" y="887" type="line" smooth="yes"/>
      <point x="733.0" y="848.940298507"/>
      <point x="756.701492537" y="824.970149254"/>
    </contour>
    <contour>
      <point x="406" y="885" type="qcurve" smooth="yes"/>
      <point x="425.402985075" y="885.0"/>
      <point x="459.089552239" y="892.044776119"/>
      <point x="477" y="901" type="qcurve"/>
      <point x="477" y="1079" type="line"/>
      <point x="389.686567164" y="1065.56716418"/>
      <point x="328.0" y="1006.52238806"/>
      <point x="328" y="961" type="qcurve" smooth="yes"/>
      <point x="328.0" y="923.686567164"/>
      <point x="368.686567164" y="885.0"/>
    </contour>
    <contour>
      <point x="782" y="621" type="line"/>
      <point x="782" y="483" type="line"/>
      <point x="84" y="483" type="line"/>
      <point x="84" y="621" type="line"/>
    </contour>
  </outline>
</glyph>
<glyph name="acute" format="1">
  <advance width="1024.0"/>
  <unicode hex="00B4"/>
  <outline>
    <contour>
      <point x="399" y="1522" type="line"/>
      <point x="848" y="1522" type="line"/>
      <point x="524" y="1212" type="line"/>
      <point x="256" y="1212" type="line"/>
    </contour>
  </outline>
</glyph>
<glyph name="cedilla" format="1">
  <advance width="1024.0"/>
  <unicode hex="00B8"/>
  <outline>
    <contour>
      <point x="659" y="-78" type="qcurve" smooth="yes"/>
      <point x="743.328358209" y="-78.0"/>
      <point x="852.0" y="-135.298507463"/>
      <point x="852" y="-195" type="qcurve" smooth="yes"/>
      <point x="852.0" y="-298.731343284"/>
      <point x="582.835820896" y="-396.970149254"/>
      <point x="250" y="-391" type="qcurve"/>
      <point x="250" y="-319" type="line"/>
      <point x="465.671641791" y="-319.0"/>
      <point x="625.0" y="-279.582089552"/>
      <point x="625" y="-246" type="qcurve" smooth="yes"/>
      <point x="625.0" y="-227.343283582"/>
      <point x="592.074626866" y="-209.0"/>
      <point x="557" y="-209" type="qcurve" smooth="yes"/>
      <point x="530.880597015" y="-209.0"/>
      <point x="473.104477612" y="-220.044776119"/>
      <point x="444" y="-229" type="qcurve"/>
      <point x="365" y="-180" type="line"/>
      <point x="516" y="0" type="line"/>
      <point x="629" y="0" type="line"/>
      <point x="557" y="-84" type="line"/>
      <point x="572.671641791" y="-82.5074626866"/>
      <point x="630.641791045" y="-78.0"/>
    </contour>
  </outline>
</glyph>
<glyph name="ordmasculine" format="1">
  <advance width="860.16"/>
  <unicode hex="00BA"/>
  <outline>
    <contour>
      <point x="430" y="1489" type="qcurve" smooth="yes"/>
      <point x="599.402985075" y="1489.0"/>
      <point x="784.0" y="1290.56716418"/>
      <point x="784" y="1104" type="qcurve" smooth="yes"/>
      <point x="784.0" y="917.432835821"/>
      <point x="599.402985075" y="717.0"/>
      <point x="430" y="717" type="qcurve" smooth="yes"/>
      <point x="260.597014925" y="717.0"/>
      <point x="76.0" y="915.432835821"/>
      <point x="76" y="1102" type="qcurve" smooth="yes"/>
      <point x="76.0" y="1288.56716418"/>
      <point x="260.597014925" y="1489.0"/>
    </contour>
    <contour>
      <point x="430" y="883" type="qcurve" smooth="yes"/>
      <point x="471.044776119" y="883.0"/>
      <point x="506.0" y="976.626865672"/>
      <point x="506" y="1102" type="qcurve" smooth="yes"/>
      <point x="506.0" y="1227.37313433"/>
      <point x="471.044776119" y="1323.0"/>
      <point x="430" y="1323" type="qcurve" smooth="yes"/>
      <point x="388.955223881" y="1323.0"/>
      <point x="354.0" y="1229.37313433"/>
      <point x="354" y="1104" type="qcurve" smooth="yes"/>
      <point x="354.0" y="978.626865672"/>
      <point x="388.955223881" y="883.0"/>
    </contour>
    <contour>
      <point x="770" y="621" type="line"/>
      <point x="770" y="483" type="line"/>
      <point x="90" y="483" type="line"/>
      <point x="90" y="621" type="line"/>
    </contour>
  </outline>
</glyph>
<glyph name="AE" format="1">
  <advance width="2019.328"/>
  <unicode hex="00C6"/>
  <outline>
    <contour>
      <point x="1972" y="340" type="line"/>
      <point x="1972" y="0" type="line"/>
      <point x="954" y="0" type="line"/>
      <point x="954" y="295" type="line"/>
      <point x="551" y="295" type="line"/>
      <point x="430" y="0" type="line"/>
      <point x="-8" y="0" type="line"/>
      <point x="662" y="1475" type="line"/>
      <point x="1948" y="1475" type="line"/>
      <point x="1948" y="1135" type="line"/>
      <point x="1378" y="1135" type="line"/>
      <point x="1378" y="915" type="line"/>
      <point x="1767" y="915" type="line"/>
      <point x="1767" y="596" type="line"/>
      <point x="1378" y="596" type="line"/>
      <point x="1378" y="340" type="line"/>
    </contour>
    <contour>
      <point x="666" y="573" type="line"/>
      <point x="954" y="573" type="line"/>
      <point x="954" y="1157" type="line"/>
      <point x="907" y="1157" type="line"/>
    </contour>
  </outline>
</glyph>
<glyph name="Ccedilla" format="1">
  <advance width="1286.144"/>
  <unicode hex="00C7"/>
  <outline>
    <contour>
      <point x="848" y="575" type="qcurve"/>
      <point x="1255" y="481" type="line"/>
      <point x="1216.94029851" y="242.940298507"/>
      <point x="946.074626866" y="-13.8059701493"/>
      <point x="711" y="-25" type="qcurve"/>
      <point x="659" y="-84" type="line"/>
      <point x="674.671641791" y="-82.5074626866"/>
      <point x="732.895522388" y="-78.0"/>
      <point x="762" y="-78" type="qcurve" smooth="yes"/>
      <point x="845.582089552" y="-78.0"/>
      <point x="954.0" y="-135.298507463"/>
      <point x="954" y="-195" type="qcurve" smooth="yes"/>
      <point x="954.0" y="-298.731343284"/>
      <point x="685.582089552" y="-396.970149254"/>
      <point x="352" y="-391" type="qcurve"/>
      <point x="352" y="-319" type="line"/>
      <point x="567.671641791" y="-319.0"/>
      <point x="727.0" y="-279.582089552"/>
      <point x="727" y="-246" type="qcurve" smooth="yes"/>
      <point x="727.0" y="-227.343283582"/>
      <point x="694.820895522" y="-209.0"/>
      <point x="659" y="-209" type="qcurve" smooth="yes"/>
      <point x="633.626865672" y="-209.0"/>
      <point x="576.104477612" y="-220.044776119"/>
      <point x="547" y="-229" type="qcurve"/>
      <point x="467" y="-180" type="line"/>
      <point x="600" y="-23" type="line"/>
      <point x="360.447761194" y="-1.35820895522"/>
      <point x="61.0" y="345.104477612"/>
      <point x="61" y="666" type="qcurve" smooth="yes"/>
      <point x="61" y="809" type="line" smooth="yes"/>
      <point x="61.0" y="1153.02985075"/>
      <point x="402.089552239" y="1499.0"/>
      <point x="670" y="1499" type="qcurve" smooth="yes"/>
      <point x="960.298507463" y="1499.0"/>
      <point x="1220.40298507" y="1203.65671642"/>
      <point x="1251" y="985" type="qcurve"/>
      <point x="827" y="889" type="line"/>
      <point x="812.074626866" y="1039.0"/>
      <point x="744.626865672" y="1167.0"/>
      <point x="670" y="1167" type="qcurve" smooth="yes"/>
      <point x="585.671641791" y="1167.0"/>
      <point x="520.0" y="1007.55223881"/>
      <point x="520" y="868" type="qcurve" smooth="yes"/>
      <point x="520" y="606" type="line" smooth="yes"/>
      <point x="520.0" y="467.194029851"/>
      <point x="588.686567164" y="307.0"/>
      <point x="676" y="307" type="qcurve" smooth="yes"/>
      <point x="752.119402985" y="307.0"/>
      <point x="826.358208955" y="427.23880597"/>
    </contour>
  </outline>
</glyph>
<glyph name="Eth" format="1">
  <advance width="1413.12"/>
  <unicode hex="00D0"/>
  <outline>
    <contour>
      <point x="1358" y="793" type="qcurve" smooth="yes"/>
      <point x="1358" y="682" type="line" smooth="yes"/>
      <point x="1358.0" y="342.447761194"/>
      <point x="1019.64179104" y="0.0"/>
      <point x="748" y="0" type="qcurve" smooth="yes"/>
      <point x="168" y="0" type="line"/>
      <point x="168" y="586" type="line"/>
      <point x="31" y="586" type="line"/>
      <point x="31" y="926" type="line"/>
      <point x="168" y="926" type="line"/>
      <point x="168" y="1475" type="line"/>
      <point x="748" y="1475" type="line" smooth="yes"/>
      <point x="1019.64179104" y="1475.0"/>
      <point x="1358.0" y="1131.80597015"/>
    </contour>
    <contour>
      <point x="731" y="332" type="line" smooth="yes"/>
      <point x="818.313432836" y="332.0"/>
      <point x="899.0" y="480.044776119"/>
      <point x="899" y="639" type="qcurve" smooth="yes"/>
      <point x="899" y="836" type="line" smooth="yes"/>
      <point x="899.0" y="994.955223881"/>
      <point x="818.313432836" y="1143.0"/>
      <point x="731" y="1143" type="qcurve" smooth="yes"/>
      <point x="580" y="1143" type="line"/>
      <point x="580" y="926" type="line"/>
      <point x="739" y="926" type="line"/>
      <point x="739" y="586" type="line"/>
      <point x="580" y="586" type="line"/>
      <point x="580" y="332" type="line"/>
    </contour>
  </outline>
</glyph>
<glyph name="multiply" format="1">
  <advance width="1228.8"/>
  <unicode hex="00D7"/>
  <outline>
    <contour>
      <point x="848" y="727" type="line"/>
      <point x="1165" y="424" type="line"/>
      <point x="918" y="176" type="line"/>
      <point x="614" y="494" type="line"/>
      <point x="311" y="176" type="line"/>
      <point x="63" y="424" type="line"/>
      <point x="381" y="727" type="line"/>
      <point x="63" y="1030" type="line"/>
      <point x="311" y="1278" type="line"/>
      <point x="614" y="961" type="line"/>
      <point x="918" y="1278" type="line"/>
      <point x="1165" y="1030" type="line"/>
    </contour>
  </outline>
</glyph>
<glyph name="Oslash" format="1">
  <advance width="1359.872"/>
  <unicode hex="00D8"/>
  <outline>
    <contour>
      <point x="1298" y="809" type="qcurve" smooth="yes"/>
      <point x="1298" y="666" type="line" smooth="yes"/>
      <point x="1298.0" y="321.970149254"/>
      <point x="955.373134328" y="-25.0"/>
      <point x="680" y="-25" type="qcurve" smooth="yes"/>
      <point x="606.865671642" y="-25.0"/>
      <point x="471.701492537" y="0.373134328358"/>
      <point x="412" y="25" type="qcurve"/>
      <point x="303" y="-195" type="line"/>
      <point x="61" y="-195" type="line"/>
      <point x="248" y="131" type="line"/>
      <point x="159.194029851" y="216.820895522"/>
      <point x="61.0" y="485.402985075"/>
      <point x="61" y="666" type="qcurve" smooth="yes"/>
      <point x="61" y="809" type="line" smooth="yes"/>
      <point x="61.0" y="1153.02985075"/>
      <point x="404.626865672" y="1499.0"/>
      <point x="680" y="1499" type="qcurve" smooth="yes"/>
      <point x="753.134328358" y="1499.0"/>
      <point x="886.298507463" y="1474.62686567"/>
      <point x="946" y="1450" type="qcurve"/>
      <point x="1057" y="1673" type="line"/>
      <point x="1298" y="1673" type="line"/>
      <point x="1108" y="1346" type="line"/>
      <point x="1198.29850746" y="1260.17910448"/>
      <point x="1298.0" y="991.089552239"/>
    </contour>
    <contour>
      <point x="680" y="291" type="qcurve" smooth="yes"/>
      <point x="770.298507463" y="291.0"/>
      <point x="864.0" y="441.074626866"/>
      <point x="864" y="606" type="qcurve" smooth="yes"/>
      <point x="864" y="868" type="line" smooth="yes"/>
      <point x="864.0" y="883.671641791"/>
      <point x="863.492537313" y="914.328358209"/>
      <point x="862" y="930" type="qcurve"/>
      <point x="565" y="334" type="line"/>
      <point x="588.134328358" y="312.358208955"/>
      <point x="644.925373134" y="291.0"/>
    </contour>
    <contour>
      <point x="498" y="549" type="qcurve"/>
      <point x="793" y="1141" type="line"/>
      <point x="771.358208955" y="1161.89552239"/>
      <point x="713.582089552" y="1184.0"/>
      <point x="680" y="1184" type="qcurve" smooth="yes"/>
      <point x="589.701492537" y="1184.0"/>
      <point x="496.0" y="1033.67164179"/>
      <point x="496" y="868" type="qcurve" smooth="yes"/>
      <point x="496" y="606" type="line" smooth="yes"/>
      <point x="496.0" y="591.074626866"/>
      <point x="496.507462687" y="562.432835821"/>
    </contour>
  </outline>
</glyph>
<glyph name="oslash" format="1">
  <advance width="1130.496"/>
  <unicode hex="00F8"/>
  <outline>
    <contour>
      <point x="1085" y="588" type="qcurve" smooth="yes"/>
      <point x="1085" y="522" type="line" smooth="yes"/>
      <point x="1085.0" y="265.28358209"/>
      <point x="811.268656716" y="-20.0"/>
      <point x="565" y="-20" type="qcurve" smooth="yes"/>
      <point x="512.014925373" y="-20.0"/>
      <point x="415.029850746" y="-5.94029850746"/>
      <point x="371" y="6" type="qcurve"/>
      <point x="274" y="-195" type="line"/>
      <point x="47" y="-195" type="line"/>
      <point x="213" y="90" type="line"/>
      <point x="131.656716418" y="158.656716418"/>
      <point x="45.0" y="378.71641791"/>
      <point x="45" y="522" type="qcurve" smooth="yes"/>
      <point x="45" y="588" type="line" smooth="yes"/>
      <point x="45.0" y="844.71641791"/>
      <point x="319.47761194" y="1130.0"/>
      <point x="565" y="1130" type="qcurve" smooth="yes"/>
      <point x="618.731343284" y="1130.0"/>
      <point x="717.223880597" y="1115.43283582"/>
      <point x="762" y="1102" type="qcurve"/>
      <point x="858" y="1305" type="line"/>
      <point x="1085" y="1305" type="line"/>
      <point x="918" y="1018" type="line"/>
      <point x="998.597014925" y="949.343283582"/>
      <point x="1085.0" y="729.791044776"/>
    </contour>
    <contour>
      <point x="432" y="420" type="qcurve"/>
      <point x="647" y="864" type="line"/>
      <point x="630.582089552" y="884.149253731"/>
      <point x="588.134328358" y="901.0"/>
      <point x="565" y="901" type="qcurve" smooth="yes"/>
      <point x="505.298507463" y="901.0"/>
      <point x="428.0" y="775.074626866"/>
      <point x="428" y="590" type="qcurve" smooth="yes"/>
      <point x="428" y="520" type="line" smooth="yes"/>
      <point x="428.0" y="492.388059701"/>
      <point x="430.507462687" y="443.134328358"/>
    </contour>
    <contour>
      <point x="565" y="209" type="qcurve" smooth="yes"/>
      <point x="624.701492537" y="209.0"/>
      <point x="702.0" y="334.925373134"/>
      <point x="702" y="520" type="qcurve" smooth="yes"/>
      <point x="702" y="590" type="line" smooth="yes"/>
      <point x="702.0" y="617.611940299"/>
      <point x="699.492537313" y="664.358208955"/>
      <point x="698" y="686" type="qcurve"/>
      <point x="485" y="244" type="line"/>
      <point x="502.164179104" y="223.850746269"/>
      <point x="542.611940299" y="209.0"/>
    </contour>
  </outline>
</glyph>
<glyph name="dotlessi" format="1">
  <advance width="585.728"/>
  <unicode hex="0131"/>
  <outline>
    <contour>
      <point x="502" y="1110" type="line"/>
      <point x="502" y="0" type="line"/>
      <point x="84" y="0" type="line"/>
      <point x="84" y="1110" type="line"/>
    </contour>
  </outline>
</glyph>
<glyph name="OE" format="1">
  <advance width="1871.872"/>
  <unicode hex="0152"/>
  <outline>
    <contour>
      <point x="1825" y="336" type="line"/>
      <point x="1825" y="0" type="line"/>
      <point x="713" y="0" type="line" smooth="yes"/>
      <point x="408.52238806" y="0.0"/>
      <point x="61.0" y="342.447761194"/>
      <point x="61" y="682" type="qcurve" smooth="yes"/>
      <point x="61" y="793" type="line" smooth="yes"/>
      <point x="61.0" y="1131.80597015"/>
      <point x="408.52238806" y="1475.0"/>
      <point x="713" y="1475" type="qcurve" smooth="yes"/>
      <point x="1800" y="1475" type="line"/>
      <point x="1800" y="1139" type="line"/>
      <point x="1231" y="1139" type="line"/>
      <point x="1231" y="915" type="line"/>
      <point x="1620" y="915" type="line"/>
      <point x="1620" y="596" type="line"/>
      <point x="1231" y="596" type="line"/>
      <point x="1231" y="336" type="line"/>
    </contour>
    <contour>
      <point x="733" y="324" type="qcurve" smooth="yes"/>
      <point x="809" y="324" type="line"/>
      <point x="809" y="1151" type="line"/>
      <point x="733" y="1151" type="line" smooth="yes"/>
      <point x="627.776119403" y="1151.0"/>
      <point x="510.0" y="998.955223881"/>
      <point x="510" y="840" type="qcurve" smooth="yes"/>
      <point x="510" y="635" type="line" smooth="yes"/>
      <point x="510.0" y="476.044776119"/>
      <point x="627.776119403" y="324.0"/>
    </contour>
  </outline>
</glyph>
<glyph name="florin" format="1">
  <advance width="1136.64"/>
  <unicode hex="0192"/>
  <outline>
    <contour>
      <point x="772" y="1487" type="qcurve" smooth="yes"/>
      <point x="880.955223881" y="1487.0"/>
      <point x="1034.29850746" y="1468.68656716"/>
      <point x="1094" y="1456" type="qcurve"/>
      <point x="1044" y="1188" type="line"/>
      <point x="1002.95522388" y="1195.46268657"/>
      <point x="927.0" y="1204.0"/>
      <point x="877" y="1204" type="qcurve" smooth="yes"/>
      <point x="810.582089552" y="1204.0"/>
      <point x="743.686567164" y="1141.17910448"/>
      <point x="731" y="1077" type="qcurve" smooth="yes"/>
      <point x="713" y="977" type="line"/>
      <point x="969" y="977" type="line"/>
      <point x="922" y="702" type="line"/>
      <point x="666" y="702" type="line"/>
      <point x="535" y="-27" type="line" smooth="yes"/>
      <point x="499.179104478" y="-222.52238806"/>
      <point x="274.089552239" y="-389.0"/>
      <point x="92" y="-389" type="qcurve" smooth="yes"/>
      <point x="8.41791044776" y="-389.0"/>
      <point x="-119.253731343" y="-377.955223881"/>
      <point x="-170" y="-369" type="qcurve"/>
      <point x="-123" y="-111" type="line"/>
      <point x="-98.3731343284" y="-113.985074627"/>
      <point x="-46.0895522388" y="-117.0"/>
      <point x="-14" y="-117" type="qcurve" smooth="yes"/>
      <point x="51.671641791" y="-117.0"/>
      <point x="119.059701493" y="-54.1791044776"/>
      <point x="131" y="10" type="qcurve" smooth="yes"/>
      <point x="256" y="702" type="line"/>
      <point x="70" y="702" type="line"/>
      <point x="117" y="977" type="line"/>
      <point x="303" y="977" type="line"/>
      <point x="330" y="1124" type="line" smooth="yes"/>
      <point x="365.074626866" y="1319.52238806"/>
      <point x="589.910447761" y="1487.0"/>
    </contour>
  </outline>
</glyph>
<glyph name="circumflex" format="1">
  <advance width="1024.0"/>
  <unicode hex="02C6"/>
  <outline>
    <contour>
      <point x="659" y="1563" type="line"/>
      <point x="879" y="1212" type="line"/>
      <point x="684" y="1212" type="line"/>
      <point x="510" y="1354" type="line"/>
      <point x="336" y="1212" type="line"/>
      <point x="145" y="1212" type="line"/>
      <point x="365" y="1563" type="line"/>
    </contour>
  </outline>
</glyph>
<glyph name="caron" format="1">
  <advance width="1024.0"/>
  <unicode hex="02C7"/>
  <outline>
    <contour>
      <point x="688" y="1563" type="line"/>
      <point x="879" y="1563" type="line"/>
      <point x="659" y="1212" type="line"/>
      <point x="365" y="1212" type="line"/>
      <point x="145" y="1563" type="line"/>
      <point x="340" y="1563" type="line"/>
      <point x="514" y="1421" type="line"/>
    </contour>
  </outline>
</glyph>
<glyph name="breve" format="1">
  <advance width="1024.0"/>
  <unicode hex="02D8"/>
  <outline>
    <contour>
      <point x="698" y="1563" type="qcurve"/>
      <point x="852" y="1563" type="line"/>
      <point x="849.014925373" y="1397.32835821"/>
      <point x="691.104477612" y="1206.0"/>
      <point x="512" y="1206" type="qcurve" smooth="yes"/>
      <point x="332.895522388" y="1206.0"/>
      <point x="174.985074627" y="1397.32835821"/>
      <point x="172" y="1563" type="qcurve"/>
      <point x="326" y="1563" type="line"/>
      <point x="337.940298507" y="1495.8358209"/>
      <point x="414.23880597" y="1407.0"/>
      <point x="512" y="1407" type="qcurve" smooth="yes"/>
      <point x="609.76119403" y="1407.0"/>
      <point x="686.059701493" y="1495.8358209"/>
    </contour>
  </outline>
</glyph>
<glyph name="ogonek" format="1">
  <advance width="1024.0"/>
  <unicode hex="02DB"/>
  <outline>
    <contour>
      <point x="786" y="-227" type="qcurve"/>
      <point x="827" y="-324" type="line"/>
      <point x="756.850746269" y="-357.582089552"/>
      <point x="609.791044776" y="-389.0"/>
      <point x="518" y="-389" type="qcurve" smooth="yes"/>
      <point x="395.611940299" y="-389.0"/>
      <point x="268.0" y="-305.388059701"/>
      <point x="268" y="-233" type="qcurve" smooth="yes"/>
      <point x="268.0" y="-167.328358209"/>
      <point x="385.582089552" y="-50.7462686567"/>
      <point x="502" y="0" type="qcurve"/>
      <point x="670" y="0" type="line"/>
      <point x="579.701492537" y="-62.6865671642"/>
      <point x="522.0" y="-146.417910448"/>
      <point x="522" y="-180" type="qcurve" smooth="yes"/>
      <point x="522.0" y="-212.089552239"/>
      <point x="573.23880597" y="-250.0"/>
      <point x="621" y="-250" type="qcurve" smooth="yes"/>
      <point x="659.059701493" y="-250.0"/>
      <point x="734.507462687" y="-241.179104478"/>
    </contour>
  </outline>
</glyph>
<glyph name="tilde" format="1">
  <advance width="1024.0"/>
  <unicode hex="02DC"/>
  <outline>
    <contour>
      <point x="702" y="1567" type="qcurve"/>
      <point x="887" y="1567" type="line"/>
      <point x="898.940298507" y="1381.92537313"/>
      <point x="795.910447761" y="1208.0"/>
      <point x="678" y="1208" type="qcurve" smooth="yes"/>
      <point x="571.28358209" y="1208.0"/>
      <point x="437.23880597" y="1311.0"/>
      <point x="385" y="1311" type="qcurve" smooth="yes"/>
      <point x="352.910447761" y="1311.0"/>
      <point x="323.492537313" y="1265.73134328"/>
      <point x="322" y="1212" type="qcurve"/>
      <point x="137" y="1212" type="line"/>
      <point x="125.059701493" y="1397.07462687"/>
      <point x="228.089552239" y="1571.0"/>
      <point x="346" y="1571" type="qcurve" smooth="yes"/>
      <point x="452.71641791" y="1571.0"/>
      <point x="586.76119403" y="1468.0"/>
      <point x="639" y="1468" type="qcurve" smooth="yes"/>
      <point x="671.089552239" y="1468.0"/>
      <point x="700.507462687" y="1513.26865672"/>
    </contour>
  </outline>
</glyph>
<glyph name="quoteleft" format="1">
  <advance width="548.864"/>
  <unicode hex="2018"/>
  <unicode hex="02BB"/>
  <outline>
    <contour>
      <point x="453" y="1475" type="line"/>
      <point x="502" y="817" type="line"/>
      <point x="279" y="817" type="line"/>
      <point x="16" y="1475" type="line"/>
    </contour>
  </outline>
</glyph>
<glyph name="quoteright" format="1">
  <advance width="548.864"/>
  <unicode hex="2019"/>
  <unicode hex="02BC"/>
  <outline>
    <contour>
      <point x="96" y="1475" type="line"/>
      <point x="532" y="1475" type="line"/>
      <point x="270" y="817" type="line"/>
      <point x="47" y="817" type="line"/>
    </contour>
  </outline>
</glyph>
<glyph name="quotedblbase" format="1">
  <advance width="1044.48"/>
  <unicode hex="201E"/>
  <outline>
    <contour>
      <point x="96" y="426" type="line"/>
      <point x="522" y="426" type="line"/>
      <point x="260" y="-231" type="line"/>
      <point x="47" y="-231" type="line"/>
    </contour>
    <contour>
      <point x="602" y="426" type="line"/>
      <point x="1028" y="426" type="line"/>
      <point x="766" y="-231" type="line"/>
      <point x="553" y="-231" type="line"/>
    </contour>
  </outline>
</glyph>
<glyph name="daggerdbl" format="1">
  <advance width="1105.92"/>
  <unicode hex="2021"/>
  <outline>
    <contour>
      <point x="1034" y="575" type="line"/>
      <point x="1034" y="266" type="line"/>
      <point x="662" y="362" type="line"/>
      <point x="768" y="0" type="line"/>
      <point x="338" y="0" type="line"/>
      <point x="444" y="362" type="line"/>
      <point x="72" y="266" type="line"/>
      <point x="72" y="575" type="line"/>
      <point x="444" y="481" type="line"/>
      <point x="344" y="737" type="line"/>
      <point x="444" y="993" type="line"/>
      <point x="72" y="899" type="line"/>
      <point x="72" y="1208" type="line"/>
      <point x="444" y="1112" type="line"/>
      <point x="338" y="1475" type="line"/>
      <point x="768" y="1475" type="line"/>
      <point x="662" y="1112" type="line"/>
      <point x="1034" y="1208" type="line"/>
      <point x="1034" y="899" type="line"/>
      <point x="662" y="993" type="line"/>
      <point x="760" y="737" type="line"/>
      <point x="662" y="481" type="line"/>
    </contour>
  </outline>
</glyph>
<glyph name="ellipsis" format="1">
  <advance width="1630.208"/>
  <unicode hex="2026"/>
  <outline>
    <contour>
      <point x="266" y="416" type="qcurve" smooth="yes"/>
      <point x="357.791044776" y="416.0"/>
      <point x="481.0" y="292.791044776"/>
      <point x="481" y="201" type="qcurve" smooth="yes"/>
      <point x="481.0" y="109.208955224"/>
      <point x="357.791044776" y="-14.0"/>
      <point x="266" y="-14" type="qcurve" smooth="yes"/>
      <point x="174.208955224" y="-14.0"/>
      <point x="51.0" y="109.208955224"/>
      <point x="51" y="201" type="qcurve" smooth="yes"/>
      <point x="51.0" y="292.791044776"/>
      <point x="174.208955224" y="416.0"/>
    </contour>
    <contour>
      <point x="815" y="416" type="qcurve" smooth="yes"/>
      <point x="906.791044776" y="416.0"/>
      <point x="1030.0" y="292.791044776"/>
      <point x="1030" y="201" type="qcurve" smooth="yes"/>
      <point x="1030.0" y="109.208955224"/>
      <point x="906.791044776" y="-14.0"/>
      <point x="815" y="-14" type="qcurve" smooth="yes"/>
      <point x="723.208955224" y="-14.0"/>
      <point x="600.0" y="109.208955224"/>
      <point x="600" y="201" type="qcurve" smooth="yes"/>
      <point x="600.0" y="292.791044776"/>
      <point x="723.208955224" y="416.0"/>
    </contour>
    <contour>
      <point x="1364" y="416" type="qcurve" smooth="yes"/>
      <point x="1455.79104478" y="416.0"/>
      <point x="1579.0" y="292.791044776"/>
      <point x="1579" y="201" type="qcurve" smooth="yes"/>
      <point x="1579.0" y="109.208955224"/>
      <point x="1455.79104478" y="-14.0"/>
      <point x="1364" y="-14" type="qcurve" smooth="yes"/>
      <point x="1272.20895522" y="-14.0"/>
      <point x="1149.0" y="109.208955224"/>
      <point x="1149" y="201" type="qcurve" smooth="yes"/>
      <point x="1149.0" y="292.791044776"/>
      <point x="1272.20895522" y="416.0"/>
    </contour>
  </outline>
</glyph>
<glyph name="guilsinglleft" format="1">
  <advance width="622.592"/>
  <unicode hex="2039"/>
  <outline>
    <contour>
      <point x="434" y="555" type="line"/>
      <point x="571" y="133" type="line"/>
      <point x="358" y="133" type="line"/>
      <point x="20" y="555" type="line"/>
      <point x="358" y="977" type="line"/>
      <point x="571" y="977" type="line"/>
    </contour>
  </outline>
</glyph>
<glyph name="guilsinglright" format="1">
  <advance width="622.592"/>
  <unicode hex="203A"/>
  <outline>
    <contour>
      <point x="264" y="977" type="line"/>
      <point x="602" y="555" type="line"/>
      <point x="264" y="133" type="line"/>
      <point x="51" y="133" type="line"/>
      <point x="188" y="555" type="line"/>
      <point x="51" y="977" type="line"/>
    </contour>
  </outline>
</glyph>
<glyph name="fraction" format="1">
  <advance width="860.16"/>
  <unicode hex="2044"/>
  <outline>
    <contour>
      <point x="631" y="1505" type="line"/>
      <point x="1008" y="1505" type="line"/>
      <point x="229" y="-31" type="line"/>
      <point x="-147" y="-31" type="line"/>
    </contour>
  </outline>
</glyph>
<glyph name="radical" format="1">
  <advance width="1286.144"/>
  <unicode hex="221A"/>
  <outline>
    <contour>
      <point x="809" y="1475" type="line"/>
      <point x="1270" y="1475" type="line"/>
      <point x="793" y="-8" type="line"/>
      <point x="336" y="-8" type="line"/>
      <point x="18" y="696" type="line"/>
      <point x="446" y="696" type="line"/>
      <point x="571" y="328" type="line"/>
    </contour>
  </outline>
</glyph>
<glyph name="f_f_l" format="1">
  <advance width="2220.032"/>
  <unicode hex="FB04"/>
  <outline>
    <contour>
      <point x="1628" y="1532" type="qcurve"/>
      <point x="1628" y="1266" type="line"/>
      <point x="1600.3880597" y="1271.97014925"/>
      <point x="1543.05970149" y="1278.0"/>
      <point x="1505" y="1278" type="qcurve" smooth="yes"/>
      <point x="1434.85074627" y="1278.0"/>
      <point x="1372.0" y="1223.17910448"/>
      <point x="1372" y="1159" type="qcurve" smooth="yes"/>
      <point x="1372" y="1106" type="line"/>
      <point x="1626" y="1106" type="line"/>
      <point x="1626" y="831" type="line"/>
      <point x="1372" y="831" type="line"/>
      <point x="1372" y="0" type="line"/>
      <point x="961" y="0" type="line"/>
      <point x="961" y="831" type="line"/>
      <point x="614" y="831" type="line"/>
      <point x="614" y="0" type="line"/>
      <point x="203" y="0" type="line"/>
      <point x="203" y="831" type="line"/>
      <point x="18" y="831" type="line"/>
      <point x="18" y="1106" type="line"/>
      <point x="203" y="1106" type="line"/>
      <point x="203" y="1149" type="line" smooth="yes"/>
      <point x="203.0" y="1349.0"/>
      <point x="419.805970149" y="1554.0"/>
      <point x="631" y="1554" type="qcurve" smooth="yes"/>
      <point x="708.611940299" y="1554.0"/>
      <point x="821.492537313" y="1542.44776119"/>
      <point x="870" y="1532" type="qcurve"/>
      <point x="870" y="1266" type="line"/>
      <point x="843.134328358" y="1271.97014925"/>
      <point x="786.059701493" y="1278.0"/>
      <point x="748" y="1278" type="qcurve" smooth="yes"/>
      <point x="677.104477612" y="1278.0"/>
      <point x="614.0" y="1223.17910448"/>
      <point x="614" y="1159" type="qcurve" smooth="yes"/>
      <point x="614" y="1106" type="line"/>
      <point x="961" y="1106" type="line"/>
      <point x="961" y="1149" type="line" smooth="yes"/>
      <point x="961.0" y="1349.0"/>
      <point x="1177.80597015" y="1554.0"/>
      <point x="1389" y="1554" type="qcurve" smooth="yes"/>
      <point x="1466.6119403" y="1554.0"/>
      <point x="1579.49253731" y="1542.44776119"/>
    </contour>
    <contour>
      <point x="2136" y="1544" type="line"/>
      <point x="2136" y="0" type="line"/>
      <point x="1718" y="0" type="line"/>
      <point x="1718" y="1495" type="line"/>
    </contour>
  </outline>
</glyph>
<glyph name="endash.uc" format="1">
  <advance width="1228.8"/>
  <outline>
    <contour>
      <point x="1161" y="905" type="line"/>
      <point x="1161" y="549" type="line"/>
      <point x="68" y="549" type="line"/>
      <point x="68" y="905" type="line"/>
    </contour>
  </outline>
</glyph>
